<?xml version="1.0" encoding="utf-8"?>
<!-- Generator: Adobe Illustrator 26.3.1, SVG Export Plug-In . SVG Version: 6.00 Build 0)  -->
<svg version="1.1" id="Layer_1" xmlns="http://www.w3.org/2000/svg" xmlns:xlink="http://www.w3.org/1999/xlink" x="0px" y="0px"
	 viewBox="0 0 60 30" style="enable-background:new 0 0 60 30;" xml:space="preserve">
<style type="text/css">
	.st0{fill:url(#SVGID_1_);}
	.st1{fill:#FFFFFF;}
</style>
<linearGradient id="SVGID_1_" gradientUnits="userSpaceOnUse" x1="4.3151217" y1="28.4514256" x2="56.586731" y2="1.0762639">
	<stop  offset="0" style="stop-color:#00DAB9"/>
	<stop  offset="0.9975" style="stop-color:#72B0DA"/>
</linearGradient>
<path class="st0" d="M56.0033302,30H3.9966679C1.7893692,30,0,28.2106304,0,26.0033321V3.9966679
	C0,1.7893692,1.7893692,0,3.9966679,0h52.0066605C58.2106323,0,60,1.7893692,60,3.9966679v22.0066643
	C60,28.2106304,58.2106323,30,56.0033302,30z"/>
<path class="st1" d="M43.1836548,13.6261072c0.1494827,0.1425991,0.2225761,0.3303871,0.2225761,0.5564604
	c0,0.2260904-0.0730934,0.4104271-0.2225761,0.5564699c-0.1495934,0.1425991-0.3374252,0.2156563-0.5704002,0.2156563h-0.7825089
	v-1.547677h0.7825089C42.8462296,13.4070168,43.0340614,13.4800558,43.1836548,13.6261072z M45.7468491,15.7163143h1.4225044
	l-0.7130013-1.9545546L45.7468491,15.7163143z M53.7316284,12.0618429v5.8743467
	c0,0.2763557-0.2240257,0.5003891-0.5003815,0.5003891H40.0482216c-0.2763519,0-0.5003777-0.2240334-0.5003777-0.5003891v-5.8743467
	c0-0.2763548,0.2240257-0.5003796,0.5003777-0.5003796h13.1830254
	C53.5076027,11.5614634,53.7316284,11.7854881,53.7316284,12.0618429z M43.9000435,15.4311676
	c0.3304329-0.3165016,0.4973946-0.7303715,0.4973946-1.2416525c0-0.5181675-0.1669617-0.9355326-0.4973946-1.2520437
	c-0.3303452-0.3165016-0.7581253-0.4764833-1.2867889-0.4764833h-0.925106h-0.3547974h-0.344326
	c-0.0869675,0-0.1494865,0.062623-0.1494865,0.1565304v4.7717009c0,0.1043587,0.0486412,0.1565285,0.1494865,0.1565285h0.6851387
	c0.1043587,0,0.1565819-0.0521698,0.1565819-0.1565285v-1.4885597h0.7825089
	C43.1419182,15.9006596,43.5696983,15.744174,43.9000435,15.4311676z M48.8422012,17.3718472l-1.9094276-4.7717543
	c-0.0347443-0.0938635-0.0973511-0.1425476-0.1877251-0.1425476h-0.566906c-0.0904808,0-0.1530838,0.0486841-0.1913261,0.1425476
	l-1.9128189,4.7717543c-0.0383453,0.1077919,0.0033913,0.1739006,0.1147423,0.1739006h0.7581253
	c0.0834885,0,0.1599884-0.055666,0.1878471-0.1391563l0.3060684-0.8451118h2.0345345l0.3095627,0.848608
	c0.0278587,0.0834904,0.1008644,0.1391029,0.1808586,0.1391029h0.7617264
	C48.838707,17.5491905,48.8839378,17.4796391,48.8422012,17.3718472z M52.6470413,12.460988h-0.8033562
	c-0.0799942,0-0.1460953,0.0452414-0.1913261,0.1321659l-1.0573273,1.9372358l-1.0607147-1.9337397
	c-0.0452347-0.0904207-0.1078377-0.1356621-0.1843376-0.1356621h-0.8103485c-0.1147385,0-0.1599884,0.0661097-0.1043587,0.18085
	l1.6624527,2.9040699v1.8433113c0,0.1043587,0.0521355,0.1565285,0.1529999,0.1565285h0.692112
	c0.1008644,0,0.1496086-0.0521698,0.1496086-0.1565285V15.545908l1.6624527-2.9040699
	C52.8000412,12.5270977,52.7617989,12.460988,52.6470413,12.460988z M26.700161,7.3714676
	c-0.5703373,0-1.069273,0.4831543-1.069273,1.0613804c0,0.5702372,0.4989357,1.0533915,1.069273,1.0533915
	c0.5782299,0,1.061388-0.4831543,1.061388-1.0533915C27.761549,7.8546219,27.2783909,7.3714676,26.700161,7.3714676z
	 M27.5556183,11.775383v6.4473858c0,0.1346188-0.0871849,0.2138138-0.2218056,0.2138138h-1.2831783
	c-0.1425114,0-0.2138157-0.0712051-0.2138157-0.2138138V11.775383c0-0.1426086,0.0713043-0.2139158,0.2138157-0.2139158h1.2831783
	C27.4684334,11.5614672,27.5556183,11.6406603,27.5556183,11.775383z M35.9122543,20.1712589
	c0,1.580143-1.3998337,2.5338669-3.5088577,2.5572739c-2.1090183-0.023407-3.5088558-0.9771309-3.5088558-2.5572739
	c0-0.5079155,0.1575127-0.938179,0.4453125-1.2737942c-0.2838516-0.3140602-0.4453125-0.7203217-0.4453125-1.1974926
	c0-0.6415386,0.3088722-1.2039051,0.8158054-1.4811211c-0.4118595-0.5069342-0.6415577-1.1484728-0.6415577-1.8693151
	c-0.0316353-1.7108011,1.2752209-3.0256453,2.9623547-3.0018854c0.2772179,0,0.7445107,0.0870867,1.1564598,0.2217102h2.1306496
	c0.1979332,0,0.3246803,0.1109571,0.3246803,0.3089828v0.7920456c0,0.1662779-0.1346245,0.3088894-0.3246803,0.3088894h-0.712944
	c0.2852211,0.4356194,0.4277229,0.8949966,0.4277229,1.3781528c0.0396423,1.6712704-1.3068581,2.97822-3.0177689,2.9465656
	c-0.4356194,0-0.8474598-0.0871792-1.2435474-0.261446c-0.2137985,0.0950737-0.3405266,0.2931004-0.3405266,0.5465565
	c0,0.2930088,0.3326492,0.4990387,0.807909,0.4990387h2.0593529C34.8984261,18.0881462,35.9122543,18.8801918,35.9122543,20.1712589
	z M30.6687641,14.3416595c0,0.7603731,0.5941124,1.3702574,1.3623791,1.3702574c0.7920456,0,1.4099197-0.5940943,1.4099197-1.362381
	c0-0.7920265-0.6178741-1.4099178-1.4020233-1.4099178C31.2786484,12.9396181,30.6687641,13.5575094,30.6687641,14.3416595z
	 M34.3756104,20.3058815c0-0.4990387-0.348423-0.6890755-1.0771599-0.6890755h-1.7901039
	c-0.7287369,0-1.077158,0.1900368-1.077158,0.6890755c0,0.5642204,0.752182,0.8800793,1.972208,0.8868065
	C33.6234474,21.1859608,34.3756104,20.8701019,34.3756104,20.3058815z M24.8873177,11.7278471
	c0,0.0237684-0.0078926,0.0633144-0.0237675,0.1029615l-2.7325478,6.4157295
	c-0.03965,0.1029606-0.1822586,0.1900444-0.3089924,0.1900444h-0.9345493c-0.1268234,0-0.2693348-0.0870838-0.3089867-0.1900444
	l-1.8933601-4.5374413l-1.8933544,4.5374413c-0.03965,0.1029606-0.1821613,0.1900444-0.3089924,0.1900444h-0.9345503
	c-0.1267328,0-0.2693415-0.0870838-0.3089914-0.1900444l-2.7325478-6.4157295
	c-0.0158758-0.0396471-0.0237617-0.0791931-0.0237617-0.1029615c0-0.1029615,0.0791903-0.1663799,0.1821556-0.1663799h1.3861437
	c0.1346254,0,0.2534599,0.0791931,0.2930059,0.1980371l1.6712704,4.7206936l1.7188072-4.7206936
	c0.039547-0.118844,0.1583805-0.1980371,0.2929993-0.1980371h0.0245533h1.2665253h0.0245514
	c0.1346207,0,0.2534599,0.0791931,0.2930069,0.1980371l1.7188072,4.7206936l1.6712646-4.7206936
	c0.039547-0.118844,0.1583939-0.1980371,0.2930126-0.1980371h1.3861446
	C24.8081284,11.5614672,24.8873177,11.6248856,24.8873177,11.7278471z M13.0215216,17.6346893
	c-0.5434875,0.6005116-1.3426161,0.9458542-2.2395363,0.9458542v0.0000191c-1.6529999,0-2.9743466-1.1726551-2.9743466-2.9544525
	h0.0000648l-0.000052-0.00002v-2.4171362H6.5821862c-0.118083,0-0.2138157-0.0957298-0.2138157-0.2138157v-1.2119818
	c0-0.1180868,0.0957327-0.2138128,0.2138157-0.2138128h1.2175727V9.0902548c0-0.0007057,0.000123-0.0013628,0.000123-0.0020714
	V8.9722242c0-0.1181412,0.0957718-0.2139168,0.2139196-0.2139168h1.2987309c0.1181479,0,0.2139196,0.0957756,0.2139196,0.2139168
	v0.0704947v2.5266247h0.9323425c0.1276455,0,0.2429581,0.0762215,0.2929802,0.1936607l0.534462,1.2548914
	c0.0371771,0.0872803-0.0229073,0.1904917-0.1177721,0.1910515c-0.000803,0.0000029-0.0015993,0.0000067-0.0024023,0.0000067
	H9.5264521v2.4174337c0.0001364,0.7519808,0.557848,1.2468634,1.2555332,1.2468634v0.000021
	c0.6587534,0,1.0443716-0.4201317,1.3000393-0.7726936c0.1434374-0.1977949,0.4488029-0.1604786,0.5445356,0.064312
	l0.4579525,1.0752316C13.1410027,17.3727646,13.1182642,17.5277977,13.0215216,17.6346893z"/>
</svg>
